<?xml version="1.0" standalone="no"?>
<!DOCTYPE svg PUBLIC "-//W3C//DTD SVG 20010904//EN"
 "http://www.w3.org/TR/2001/REC-SVG-20010904/DTD/svg10.dtd">
<svg version="1.0" xmlns="http://www.w3.org/2000/svg"
 width="260.000000pt" height="260.000000pt" viewBox="0 0 260.000000 260.000000"
 preserveAspectRatio="xMidYMid meet">
<metadata>
Created by potrace 1.11, written by Peter Selinger 2001-2013
</metadata>
<g transform="translate(0.000000,260.000000) scale(0.100000,-0.100000)"
fill="#000000" stroke="none">
<path d="M0 1300 l0 -1300 1300 0 1300 0 0 1300 0 1300 -1300 0 -1300 0 0
-1300z m2067 174 c190 -39 314 -142 363 -302 18 -58 20 -94 20 -396 0 -365 10
-521 40 -599 11 -29 20 -55 20 -60 0 -4 -84 -6 -187 -5 l-187 3 -16 52 -15 51
-35 -29 c-222 -188 -604 -121 -726 126 -76 156 -38 367 87 479 108 97 239 136
487 143 l172 6 0 66 c-1 100 -42 173 -113 200 -51 20 -149 13 -197 -12 -45
-23 -80 -74 -80 -114 l0 -23 -184 0 -185 0 6 38 c12 87 40 146 102 215 129
142 392 210 628 161z"/>
<path d="M1870 723 c-130 -22 -200 -94 -200 -206 0 -65 28 -113 80 -140 27
-14 53 -17 110 -15 89 4 157 34 201 88 28 34 29 37 29 157 l0 123 -97 -1 c-54
-1 -109 -4 -123 -6z"/>
</g>
</svg>
